<?xml version="1.0" encoding="UTF-8"?>
<svg id="Capa_1" data-name="Capa 1" xmlns="http://www.w3.org/2000/svg" viewBox="0 0 1200 1200">
  <defs>
    <style>
      .cls-1, .cls-2 {
        stroke-width: 0px;
      }

      .cls-2 {
        fill: #fff;
      }
    </style>
  </defs>
  <rect class="cls-1" width="1200" height="1200" rx="200" ry="200"/>
  <g>
    <path class="cls-2" d="m187.561,223.76h326.275v150.589h-130.603v142.687h122.237v143.153h-122.237v165.462h143.617v150.589H187.561V223.76Z"/>
    <path class="cls-2" d="m995.473,468.933h-195.919v-39.402c0-33.562-1.916-54.812-5.746-63.755-3.83-8.936-13.408-13.408-28.731-13.408-12.407,0-21.71,4.105-27.909,12.313-6.207,8.209-9.303,20.523-9.303,36.94,0,22.257,1.548,38.582,4.651,48.98,3.096,10.397,12.4,21.804,27.91,34.204,15.502,12.408,47.337,30.467,95.496,54.179,64.209,31.381,106.349,60.933,126.417,88.655,20.06,27.73,30.099,68.047,30.099,120.943,0,59.103-7.662,103.705-22.985,133.804-15.323,30.099-40.96,53.273-76.89,69.501-35.939,16.23-79.266,24.353-129.974,24.353-56.188,0-104.253-8.757-144.203-26.269-39.949-17.512-67.407-41.224-82.362-71.144-14.964-29.911-22.438-75.153-22.438-135.719v-35.024h195.919v45.97c0,39.043,2.462,64.397,7.389,76.068,4.924,11.68,14.682,17.512,29.279,17.512,15.683,0,26.628-3.916,32.836-11.766,6.199-7.841,9.303-24.353,9.303-49.527,0-34.657-4.019-56.367-12.041-65.124-8.396-8.756-51.262-34.657-128.605-77.711-64.945-36.479-104.527-69.587-118.755-99.327-14.228-29.732-21.342-65.029-21.342-105.894,0-58.01,7.662-100.78,22.985-128.332,15.323-27.543,41.317-48.791,77.984-63.755,36.666-14.956,79.259-22.438,127.785-22.438,48.159,0,89.108,6.113,122.859,18.333,33.741,12.228,59.651,28.372,77.709,48.432,18.059,20.068,29.004,38.676,32.836,55.819,3.83,17.153,5.746,43.968,5.746,80.447v42.141Z"/>
  </g>
</svg>