<?xml version="1.0" encoding="utf-8"?>
<!-- Generator: Adobe Illustrator 28.0.0, SVG Export Plug-In . SVG Version: 6.00 Build 0)  -->
<svg version="1.1" id="Capa_1" xmlns="http://www.w3.org/2000/svg" xmlns:xlink="http://www.w3.org/1999/xlink" x="0px" y="0px"
	 viewBox="0 0 1200 1200" style="enable-background:new 0 0 1200 1200;" xml:space="preserve">
<style type="text/css">
	.st0{fill:#FF0000;}
	.st1{fill:#FFFFFF;}
</style>
<path class="st0" d="M200,0h800c110.5,0,200,89.5,200,200v800c0,110.5-89.5,200-200,200H200c-110.5,0-200-89.5-200-200V200
	C0,89.5,89.5,0,200,0z"/>
<g>
	<path class="st1" d="M187.6,223.8h326.3v150.6H383.2V517h122.2v143.2H383.2v165.5h143.6v150.6H187.6V223.8z"/>
	<path class="st1" d="M995.5,468.9H799.6v-39.4c0-33.6-1.9-54.8-5.7-63.8c-3.8-8.9-13.4-13.4-28.7-13.4c-12.4,0-21.7,4.1-27.9,12.3
		c-6.2,8.2-9.3,20.5-9.3,36.9c0,22.3,1.5,38.6,4.7,49c3.1,10.4,12.4,21.8,27.9,34.2c15.5,12.4,47.3,30.5,95.5,54.2
		c64.2,31.4,106.3,60.9,126.4,88.7c20.1,27.7,30.1,68,30.1,120.9c0,59.1-7.7,103.7-23,133.8c-15.3,30.1-41,53.3-76.9,69.5
		c-35.9,16.2-79.3,24.4-130,24.4c-56.2,0-104.3-8.8-144.2-26.3c-39.9-17.5-67.4-41.2-82.4-71.1c-15-29.9-22.4-75.2-22.4-135.7v-35
		h195.9v46c0,39,2.5,64.4,7.4,76.1c4.9,11.7,14.7,17.5,29.3,17.5c15.7,0,26.6-3.9,32.8-11.8c6.2-7.8,9.3-24.4,9.3-49.5
		c0-34.7-4-56.4-12-65.1c-8.4-8.8-51.3-34.7-128.6-77.7c-64.9-36.5-104.5-69.6-118.8-99.3c-14.2-29.7-21.3-65-21.3-105.9
		c0-58,7.7-100.8,23-128.3c15.3-27.5,41.3-48.8,78-63.8c36.7-15,79.3-22.4,127.8-22.4c48.2,0,89.1,6.1,122.9,18.3
		c33.7,12.2,59.7,28.4,77.7,48.4c18.1,20.1,29,38.7,32.8,55.8c3.8,17.2,5.7,44,5.7,80.4V468.9L995.5,468.9z"/>
</g>
</svg>
